<svg width="66" height="66" viewBox="0 0 66 66" fill="none" xmlns="http://www.w3.org/2000/svg">
<path d="M10.56 33C10.56 45.408 20.592 55.44 33 55.44C45.408 55.44 55.44 45.408 55.44 33C55.44 20.592 45.408 10.56 33 10.56C20.592 10.56 10.56 20.592 10.56 33ZM52.8 33C52.8 43.956 43.956 52.8 33 52.8C22.044 52.8 13.2 43.956 13.2 33C13.2 22.044 22.044 13.2 33 13.2C43.956 13.2 52.8 22.044 52.8 33Z" fill="black"/>
<path d="M30.756 22.044L41.712 33L30.756 43.956L32.604 45.804L45.408 33L32.604 20.196L30.756 22.044Z" fill="black"/>
<path d="M43.56 34.32V31.68L21.12 31.68V34.32H43.56Z" fill="black"/>
</svg>
